<svg width="17" height="15" viewBox="0 0 17 15" fill="none" xmlns="http://www.w3.org/2000/svg">
<path d="M16.5186 7.41917C16.5186 7.79886 16.2364 8.11266 15.8703 8.16232L15.7686 8.16917L2.58455 8.16857L7.34754 12.9121C7.64106 13.2044 7.64209 13.6792 7.34983 13.9728C7.08413 14.2396 6.66752 14.2647 6.37344 14.0475L6.28917 13.975L0.239168 7.95104C0.200478 7.91251 0.166872 7.87082 0.13835 7.82679C0.130293 7.81354 0.122093 7.79998 0.114319 7.78615C0.107168 7.77429 0.100706 7.76198 0.0946102 7.74953C0.0861435 7.73142 0.0778713 7.71271 0.0703602 7.69362C0.0642567 7.6789 0.0591621 7.66459 0.0545139 7.65016C0.0489883 7.63226 0.0436192 7.6132 0.0390015 7.59384C0.0355682 7.58032 0.0328484 7.56731 0.0304775 7.55425C0.0271416 7.53482 0.0243034 7.51471 0.0222778 7.49437C0.0205288 7.47885 0.0194759 7.46347 0.0188942 7.44808C0.0187435 7.43875 0.0185547 7.42898 0.0185547 7.41917L0.0189304 7.39011C0.0195045 7.37539 0.0205097 7.36069 0.0219479 7.34601L0.0185547 7.41917C0.0185547 7.37184 0.0229378 7.32553 0.0313225 7.28064C0.0332661 7.26991 0.0355835 7.25891 0.0381489 7.24794C0.0434761 7.22537 0.049633 7.20362 0.0567226 7.18231C0.0602016 7.17172 0.0642567 7.16041 0.0685883 7.14917C0.0773525 7.12661 0.0868797 7.10509 0.0973587 7.08414C0.102228 7.07429 0.107679 7.06397 0.11339 7.05376C0.122763 7.0371 0.132418 7.02127 0.142628 7.00584C0.149832 6.99492 0.157808 6.98355 0.166138 6.97236L0.172628 6.96372C0.192835 6.93732 0.214756 6.91231 0.238224 6.88884L0.239124 6.88814L6.28912 0.863141C6.58262 0.570854 7.0575 0.571838 7.34978 0.865337C7.6155 1.13215 7.63884 1.54887 7.42038 1.84203L7.34759 1.92599L2.58655 6.66857L15.7686 6.66917C16.1828 6.66917 16.5186 7.00495 16.5186 7.41917Z" fill="currentColor"/>
</svg>
