<svg width="14" height="13" viewBox="0 0 14 13" fill="none" xmlns="http://www.w3.org/2000/svg">
<path d="M10.9576 12.8452C10.3999 12.8452 9.61643 12.6435 8.44327 11.988C7.01668 11.188 5.91324 10.4494 4.49436 9.03427C3.12635 7.66711 2.46063 6.78196 1.5289 5.08651C0.476317 3.1722 0.655747 2.16876 0.856321 1.7399C1.09518 1.22732 1.44776 0.920748 1.90348 0.616458C2.16232 0.446867 2.43625 0.301488 2.72177 0.182167C2.75034 0.169882 2.77692 0.158167 2.80063 0.147596C2.94206 0.0838806 3.15635 -0.0124063 3.42778 0.0904521C3.60893 0.158453 3.77064 0.297597 4.02379 0.5476C4.54294 1.05961 5.25237 2.19991 5.51409 2.75991C5.68981 3.13735 5.8061 3.38649 5.80638 3.66592C5.80638 3.99307 5.64181 4.24536 5.44209 4.51765C5.40466 4.56879 5.36752 4.61765 5.33152 4.66508C5.11409 4.9508 5.06637 5.03337 5.0978 5.1808C5.16152 5.47709 5.63666 6.3591 6.41753 7.13825C7.1984 7.9174 8.05498 8.36255 8.35241 8.42598C8.50613 8.45884 8.59041 8.40912 8.88528 8.18398C8.92756 8.15169 8.97099 8.11826 9.01642 8.08483C9.321 7.85826 9.56157 7.69797 9.881 7.69797H9.88272C10.1607 7.69797 10.3987 7.81854 10.793 8.0174C11.3073 8.27684 12.4819 8.97713 12.997 9.49685C13.2476 9.74943 13.3873 9.91057 13.4556 10.0914C13.5585 10.3637 13.4616 10.5771 13.3985 10.72C13.3879 10.7437 13.3762 10.7697 13.3639 10.7986C13.2436 11.0836 13.0974 11.3569 12.927 11.6152C12.6233 12.0695 12.3156 12.4212 11.8019 12.6603C11.5381 12.7851 11.2494 12.8483 10.9576 12.8452Z" fill="white"/>
</svg>
