<svg width="15" height="15" viewBox="0 0 15 15" fill="none" xmlns="http://www.w3.org/2000/svg">
<path d="M2.10117 14.4454C1.88863 14.4444 1.68515 14.3592 1.53536 14.2084C1.38557 14.0576 1.30169 13.8536 1.3021 13.6411C1.30396 13.5603 1.31658 13.4801 1.3396 13.4026L1.91523 11.3204C1.93929 11.2436 1.9121 11.1661 1.87679 11.1048L1.86992 11.0923C1.86742 11.0882 1.85554 11.0717 1.8471 11.0595C1.83867 11.0473 1.82898 11.0342 1.82023 11.0214L1.81429 11.0129C1.08746 9.91132 0.700089 8.62054 0.700229 7.30075C0.694604 5.50106 1.39867 3.80075 2.68335 2.51075C4.01273 1.17887 5.79085 0.445435 7.6946 0.445435C9.3096 0.444638 10.8767 0.99397 12.1377 2.00294C13.3705 2.99512 14.2274 4.37794 14.5505 5.89919C14.65 6.36132 14.7001 6.83272 14.6999 7.30544C14.6999 9.147 13.9924 10.8767 12.7074 12.1764C11.4112 13.4889 9.67054 14.2095 7.80648 14.2095C7.15023 14.2095 6.31054 14.042 5.90742 13.9283C5.42242 13.7926 4.96273 13.6157 4.9121 13.597C4.85853 13.5765 4.80166 13.5659 4.74429 13.5658C4.68207 13.5654 4.62041 13.5776 4.56304 13.6017L4.53648 13.612L2.42773 14.3739C2.32416 14.4175 2.21348 14.4417 2.10117 14.4454Z" fill="white"/>
</svg>
