<svg width="19" height="21" viewBox="0 0 19 21" fill="none" xmlns="http://www.w3.org/2000/svg">
<path fill-rule="evenodd" clip-rule="evenodd" d="M16.494 6.74063C16.907 6.77463 17.215 7.13563 17.182 7.54863C17.176 7.61663 16.634 14.3276 16.322 17.1426C16.128 18.8896 14.974 19.9526 13.232 19.9846C11.899 20.0076 10.613 20.0206 9.35598 20.0206C8.00098 20.0206 6.67997 20.0056 5.37297 19.9786C3.70097 19.9456 2.54397 18.8616 2.35497 17.1496C2.03997 14.3096 1.50098 7.61563 1.49598 7.54863C1.46198 7.13563 1.76998 6.77363 2.18298 6.74063C2.58998 6.72963 2.95797 7.01563 2.99097 7.42763C2.99417 7.47103 3.21452 10.2047 3.45464 12.9093L3.50287 13.4491C3.62381 14.7935 3.7464 16.0853 3.84597 16.9846C3.95297 17.9576 4.47798 18.4596 5.40398 18.4786C7.90398 18.5316 10.455 18.5346 13.205 18.4846C14.189 18.4656 14.721 17.9736 14.831 16.9776C15.141 14.1836 15.681 7.49563 15.687 7.42763C15.72 7.01563 16.085 6.72763 16.494 6.74063ZM11.4548 0.0209274C12.3728 0.0209274 13.1798 0.639927 13.4168 1.52693L13.6708 2.78793C13.7529 3.2013 14.1156 3.50318 14.5357 3.50982L17.8174 3.50993C18.2314 3.50993 18.5674 3.84593 18.5674 4.25993C18.5674 4.67393 18.2314 5.00993 17.8174 5.00993L14.565 5.00978C14.5599 5.00988 14.5548 5.00993 14.5498 5.00993L14.5254 5.00893L4.15099 5.00981C4.14293 5.00989 4.13486 5.00993 4.12677 5.00993L4.11137 5.00893L0.859375 5.00993C0.445375 5.00993 0.109375 4.67393 0.109375 4.25993C0.109375 3.84593 0.445375 3.50993 0.859375 3.50993L4.14038 3.50893L4.2414 3.50253C4.61768 3.45371 4.93041 3.16793 5.00677 2.78793L5.24977 1.57193C5.49677 0.639927 6.30378 0.0209274 7.22178 0.0209274H11.4548ZM11.4548 1.52093H7.22178C6.98178 1.52093 6.77077 1.68193 6.70977 1.91293L6.47678 3.08293C6.44716 3.23112 6.40404 3.37394 6.34886 3.5102H12.328C12.2727 3.37394 12.2295 3.23112 12.1998 3.08293L11.9568 1.86693C11.9058 1.68193 11.6948 1.52093 11.4548 1.52093Z" fill="#E5432E"/>
</svg>
