<svg width="21" height="21" viewBox="0 0 21 21" fill="none" xmlns="http://www.w3.org/2000/svg">
<path fill-rule="evenodd" clip-rule="evenodd" d="M9.60138 0.0573274C10.0154 0.0573274 10.3514 0.393327 10.3514 0.807328C10.3514 1.22133 10.0154 1.55733 9.60138 1.55733H5.86238C3.27838 1.55733 1.60938 3.32733 1.60938 6.06633V14.3803C1.60938 17.1193 3.27838 18.8893 5.86238 18.8893H14.6864C17.2704 18.8893 18.9404 17.1193 18.9404 14.3803V10.3523C18.9404 9.93833 19.2764 9.60233 19.6904 9.60233C20.1044 9.60233 20.4404 9.93833 20.4404 10.3523V14.3803C20.4404 17.9743 18.1274 20.3893 14.6864 20.3893H5.86238C2.42138 20.3893 0.109375 17.9743 0.109375 14.3803V6.06633C0.109375 2.47233 2.42138 0.0573274 5.86238 0.0573274H9.60138ZM18.311 0.935928L19.528 2.15293C20.121 2.74493 20.447 3.53193 20.446 4.36993C20.446 5.20793 20.12 5.99393 19.528 6.58493L12.019 14.0939C11.468 14.6449 10.734 14.9489 9.95398 14.9489H6.20798C6.00598 14.9489 5.81198 14.8669 5.67098 14.7219C5.52998 14.5779 5.45298 14.3829 5.45798 14.1799L5.55198 10.4009C5.57098 9.64893 5.87398 8.94193 6.40598 8.40893H6.40698L13.88 0.935928C15.102 -0.284073 17.089 -0.284073 18.311 0.935928ZM13.2644 3.67193L7.46698 9.46993C7.20798 9.72893 7.06098 10.0729 7.05198 10.4379L6.97698 13.4489H9.95398C10.334 13.4489 10.69 13.3019 10.959 13.0329L16.7914 7.19893L13.2644 3.67193ZM14.94 1.99693L14.3244 2.61093L17.8514 6.13893L18.468 5.52393C18.776 5.21593 18.946 4.80593 18.946 4.36993C18.946 3.93293 18.776 3.52193 18.468 3.21393L17.251 1.99693C16.614 1.36193 15.578 1.36193 14.94 1.99693Z" fill="currentColor"/>
</svg>
