<svg width="177" height="129" viewBox="0 0 177 129" fill="none" xmlns="http://www.w3.org/2000/svg">
<path d="M80.607 41.9778C83.4645 39.288 82.3292 34.7213 79.9233 31.6575H53.4775C53.4793 38.4655 55.4582 45.1265 59.1739 50.8312C62.8896 56.5359 68.1821 61.0386 74.4084 63.7923C72.2669 51.524 78.2269 44.216 80.607 41.9778Z" fill="currentColor"/>
<path d="M107.35 31.6318C104.938 35.3536 100.648 40.2751 93.8046 42.81C83.6585 46.5834 73.2737 48.9248 77.1631 64.8632C82.4543 66.6782 88.1022 67.204 93.6374 66.3971C99.1726 65.5901 104.435 63.4737 108.988 60.2236C113.541 56.9736 117.252 52.6838 119.813 47.7109C122.375 42.738 123.712 37.2256 123.714 31.6318H107.35Z" fill="currentColor"/>
<path d="M107.949 0.94165C76.1694 12.3843 84 34.8568 84 34.8568C89.5213 32.3992 99.3321 17.9121 99.3321 17.9121C98.7451 23.8721 92.6819 32.3283 89.5084 36.3919C89.4375 36.4757 85.4964 40.8554 83.155 42.139C77.9561 45.0029 78.1045 47.8603 77.8594 49.1052V49.202C78.098 48.5569 79.7944 45.119 87.4831 42.526C97.1583 39.3009 104.537 34.2569 107.917 26.7295C114.142 15.4868 107.949 0.94165 107.949 0.94165Z" fill="currentColor"/>
<path d="M81.7296 34.876H52.7037C51.8424 34.876 51.0163 34.5338 50.4073 33.9247C49.7982 33.3157 49.4561 32.4896 49.4561 31.6283C49.4561 30.767 49.7982 29.9409 50.4073 29.3318C51.0163 28.7228 51.8424 28.3806 52.7037 28.3806H75.1246C76.8597 29.0708 78.5883 30.0061 79.6075 31.1993C80.527 32.2895 81.2455 33.5344 81.7296 34.876ZM124.527 28.3806H109.188C108.045 30.7146 106.615 32.8966 104.931 34.876H124.527C125.388 34.876 126.214 34.5338 126.823 33.9247C127.432 33.3157 127.774 32.4896 127.774 31.6283C127.774 30.767 127.432 29.9409 126.823 29.3318C126.214 28.7228 125.388 28.3806 124.527 28.3806Z" fill="currentColor"/>
<path d="M6.37869 115.413C5.72972 115.413 5.14905 115.157 4.6367 114.645C4.12435 114.132 3.86817 113.552 3.86817 112.903L3.91941 83.0328C3.91941 82.3497 4.14143 81.769 4.58547 81.2908C5.06366 80.7785 5.6614 80.5223 6.37869 80.5223C6.78857 80.5223 7.18138 80.6247 7.5571 80.8297C7.93282 81.0005 8.24023 81.2566 8.47933 81.5982L24.5159 104.808V83.0328C24.5159 82.3497 24.755 81.7519 25.2332 81.2396C25.7456 80.7272 26.3604 80.471 27.0777 80.471C27.7608 80.471 28.3415 80.7272 28.8197 81.2396C29.332 81.7519 29.5882 82.3497 29.5882 83.0328V112.903C29.5882 113.62 29.3491 114.218 28.8709 114.696C28.3927 115.174 27.795 115.413 27.0777 115.413C26.7019 115.413 26.3091 115.311 25.8993 115.106C25.5235 114.901 25.2161 114.628 24.977 114.286L8.99168 91.1792L8.94045 112.903C8.94045 113.62 8.68427 114.218 8.17192 114.696C7.69373 115.174 7.09598 115.413 6.37869 115.413ZM43.4592 115.413C41.5123 115.413 39.719 114.884 38.0795 113.825C36.4741 112.766 35.2103 111.332 34.2881 109.521C33.3659 107.677 32.9048 105.679 32.9048 103.527C32.9048 101.102 33.4513 98.8474 34.5443 96.7638C35.6373 94.6461 37.106 92.9724 38.9505 91.7428C40.795 90.479 42.7761 89.8471 44.8938 89.8471C46.8407 89.8471 48.6169 90.3936 50.2222 91.4866C51.8617 92.5796 53.1426 94.0313 54.0649 95.8416C55.0212 97.6519 55.4994 99.5988 55.4994 101.682C55.4994 104.142 54.9529 106.43 53.8599 108.548C52.7669 110.631 51.2811 112.305 49.4025 113.569C47.558 114.799 45.5769 115.413 43.4592 115.413ZM43.4592 110.802C44.6547 110.802 45.7989 110.392 46.8919 109.573C47.985 108.753 48.856 107.66 49.5049 106.294C50.1539 104.927 50.4784 103.476 50.4784 101.939C50.4784 100.641 50.2222 99.428 49.7099 98.3009C49.1975 97.1395 48.4973 96.2173 47.6092 95.5342C46.7212 94.8169 45.7477 94.4582 44.6888 94.4582C43.4933 94.4582 42.3662 94.8852 41.3073 95.7391C40.2826 96.5589 39.4629 97.669 38.848 99.0694C38.2332 100.436 37.9258 101.904 37.9258 103.476C37.9258 105.013 38.182 106.328 38.6943 107.421C39.2408 108.514 39.924 109.351 40.7437 109.931C41.5977 110.512 42.5028 110.802 43.4592 110.802ZM65.541 115.567C63.6966 115.567 62.2278 115.174 61.1348 114.389C60.0418 113.569 59.222 112.1 58.6755 109.982C58.129 107.865 57.8558 104.825 57.8558 100.863C57.8558 99.5305 57.907 98.0618 58.0095 96.4564C58.1119 94.851 58.2486 93.5018 58.4193 92.4088C58.556 91.5549 58.8121 90.9059 59.1879 90.4619C59.5636 90.0178 60.1101 89.7958 60.8274 89.7958C61.5105 89.7958 62.0912 90.0008 62.5694 90.4106C63.0476 90.8205 63.2867 91.4183 63.2867 92.2039L63.1842 93.6385C62.8426 96.5418 62.6719 99.3256 62.6719 101.99C62.6719 105.474 62.9622 107.848 63.5428 109.111C64.1577 110.341 64.9945 110.956 66.0534 110.956C67.283 110.956 68.5468 110.631 69.8448 109.982C71.1427 109.299 72.065 108.65 72.6115 108.036C72.8164 107.831 72.9189 107.404 72.9189 106.755L73.0213 92.1526C73.0213 91.4695 73.2604 90.9059 73.7386 90.4619C74.251 90.0178 74.8146 89.7958 75.4294 89.7958C76.0784 89.7958 76.642 90.0178 77.1201 90.4619C77.6325 90.9059 77.8887 91.4695 77.8887 92.1526V112.954C77.8887 113.603 77.6325 114.184 77.1201 114.696C76.642 115.174 76.0784 115.413 75.4294 115.413C74.7463 115.413 74.1314 115.208 73.5849 114.799C73.0726 114.355 72.8164 113.808 72.8164 113.159V112.595C71.5184 113.518 70.3059 114.252 69.1787 114.799C68.0857 115.311 66.8731 115.567 65.541 115.567ZM85.0599 115.413C84.4109 115.413 83.8303 115.174 83.3179 114.696C82.8056 114.218 82.5494 113.671 82.5494 113.057V92.3063C82.5494 91.6232 82.7885 91.0425 83.2667 90.5644C83.779 90.0862 84.3768 89.8471 85.0599 89.8471C85.743 89.8471 86.3237 90.0862 86.8019 90.5644C87.3142 91.0425 87.5704 91.6232 87.5704 92.3063V93.8434C89.2441 91.1109 91.5326 89.7446 94.4359 89.7446C96.1779 89.7446 97.4246 90.2228 98.1761 91.1792C98.9617 92.1356 99.3545 93.2798 99.3545 94.6119V96.149C99.3545 96.8321 99.1154 97.4128 98.6372 97.891C98.1932 98.335 97.6296 98.557 96.9464 98.557C96.1267 98.557 95.5119 98.3179 95.102 97.8397C94.7262 97.3615 94.5384 96.7809 94.5384 96.0977V95.4317C94.5384 94.8852 94.1627 94.6119 93.4112 94.6119C92.7964 94.6119 92.0791 94.9193 91.2593 95.5342C90.4737 96.149 89.8248 96.798 89.3124 97.4811C88.5951 98.3692 88.1169 99.2572 87.8778 100.145C87.6729 101.033 87.5704 102.092 87.5704 103.322L87.5192 113.057C87.5192 113.671 87.263 114.218 86.7507 114.696C86.2383 115.174 85.6747 115.413 85.0599 115.413ZM103.49 87.6952C102.841 87.6952 102.26 87.439 101.748 86.9267C101.269 86.4143 101.047 85.8336 101.082 85.1847L101.133 83.289C101.167 82.64 101.423 82.0764 101.901 81.5982C102.38 81.12 102.943 80.8809 103.592 80.8809C104.241 80.8809 104.805 81.1371 105.283 81.6494C105.795 82.1618 106.034 82.7254 106 83.3402L105.949 85.2871C105.915 85.9703 105.659 86.5509 105.18 87.0291C104.736 87.4732 104.173 87.6952 103.49 87.6952ZM103.233 115.413C102.55 115.413 101.953 115.174 101.44 114.696C100.962 114.184 100.723 113.586 100.723 112.903L100.979 92.5113C100.979 91.8282 101.218 91.2475 101.696 90.7693C102.209 90.2569 102.806 90.0008 103.49 90.0008C104.207 90.0008 104.805 90.2569 105.283 90.7693C105.761 91.2475 106 91.8282 106 92.5113L105.744 112.903C105.744 113.586 105.488 114.184 104.975 114.696C104.497 115.174 103.917 115.413 103.233 115.413ZM118.069 115.413C116.088 115.413 114.363 114.986 112.894 114.132C111.459 113.244 110.349 112.237 109.564 111.11C108.812 109.948 108.437 109.009 108.437 108.292C108.437 107.609 108.676 107.045 109.154 106.601C109.632 106.123 110.196 105.884 110.845 105.884C111.425 105.884 111.903 106.037 112.279 106.345C112.689 106.652 112.979 107.062 113.15 107.574C113.526 108.633 114.141 109.47 114.995 110.085C115.849 110.7 116.907 111.007 118.171 111.007C119.503 111.007 120.545 110.683 121.297 110.034C122.048 109.385 122.424 108.65 122.424 107.831C122.424 107.045 122.099 106.43 121.45 105.986C120.835 105.508 119.572 104.978 117.659 104.398C114.858 103.544 112.843 102.536 111.613 101.375C110.383 100.179 109.769 98.6253 109.769 96.7126C109.769 94.6973 110.571 93.0578 112.177 91.794C113.782 90.496 116.019 89.8471 118.888 89.8471C121.553 89.8471 123.619 90.4277 125.088 91.5891C126.591 92.7504 127.342 94.3045 127.342 96.2514C127.342 97.3103 127.12 98.1301 126.676 98.7107C126.232 99.2572 125.6 99.5305 124.781 99.5305C124.063 99.5305 123.483 99.3085 123.039 98.8644C122.594 98.4204 122.372 97.9422 122.372 97.4299C122.372 97.2591 122.407 97.0541 122.475 96.815C122.577 96.5418 122.629 96.3368 122.629 96.2002C122.629 95.5854 122.321 95.0901 121.706 94.7144C121.126 94.3387 120.221 94.1508 118.991 94.1508C117.454 94.1508 116.31 94.3728 115.558 94.8169C114.841 95.2609 114.482 95.8586 114.482 96.6101C114.482 97.3957 114.858 98.0447 115.609 98.557C116.361 99.0352 117.71 99.5817 119.657 100.197C122.492 101.085 124.456 102.058 125.549 103.117C126.676 104.176 127.24 105.662 127.24 107.574C127.24 108.872 126.847 110.136 126.061 111.366C125.31 112.561 124.234 113.535 122.834 114.286C121.467 115.038 119.879 115.413 118.069 115.413ZM132.424 115.465C131.775 115.465 131.195 115.226 130.682 114.747C130.204 114.235 129.965 113.654 129.965 113.005V83.4939C129.965 82.8108 130.204 82.2301 130.682 81.7519C131.195 81.2396 131.81 80.9834 132.527 80.9834C133.21 80.9834 133.774 81.2396 134.218 81.7519C134.662 82.2301 134.884 82.8108 134.884 83.4939V94.5095C136.011 93.0749 137.292 91.9306 138.726 91.0767C140.161 90.1886 141.596 89.7446 143.03 89.7446C145.728 89.7446 147.624 91.1109 148.717 93.8434C149.81 96.5418 150.357 100.828 150.357 106.703C150.357 110.017 150.305 112.151 150.203 113.108C150.169 113.757 149.913 114.303 149.435 114.747C148.99 115.191 148.444 115.413 147.795 115.413C147.078 115.413 146.497 115.191 146.053 114.747C145.609 114.269 145.387 113.688 145.387 113.005C145.387 112.322 145.404 111.759 145.438 111.315L145.489 107.062C145.489 102.109 145.216 98.7961 144.67 97.1224C144.157 95.4488 143.508 94.6119 142.723 94.6119C141.732 94.6119 140.725 95.073 139.7 95.9953C138.675 96.8833 137.787 97.891 137.036 99.0181C136.318 100.111 135.806 100.982 135.499 101.631C135.089 102.553 134.884 103.766 134.884 105.269V112.903C134.884 113.688 134.645 114.32 134.166 114.799C133.688 115.243 133.108 115.465 132.424 115.465ZM170.938 115.926C170.255 115.926 169.692 115.738 169.248 115.362C168.838 114.986 168.633 114.491 168.633 113.876V113.159C167.232 114.662 165.285 115.413 162.792 115.413C160.913 115.413 159.223 114.952 157.72 114.03C156.217 113.108 155.038 111.81 154.184 110.136C153.331 108.428 152.904 106.498 152.904 104.347C152.904 101.956 153.416 99.65 154.441 97.4299C155.465 95.1755 156.9 93.3481 158.744 91.9477C160.623 90.5473 162.775 89.8471 165.2 89.8471C166.771 89.8471 168.189 90.0691 169.453 90.5131C170.716 90.923 172.031 91.4354 173.398 92.0502V113.364C173.398 114.047 173.159 114.645 172.68 115.157C172.202 115.67 171.621 115.926 170.938 115.926ZM163.151 110.649C164.141 110.649 165.098 110.444 166.02 110.034C166.976 109.624 167.762 109.129 168.377 108.548L168.53 95.1755C167.54 94.7656 166.464 94.5607 165.302 94.5607C163.834 94.5607 162.536 95.0218 161.409 95.944C160.281 96.8321 159.41 98.0276 158.796 99.5305C158.181 100.999 157.873 102.57 157.873 104.244C157.873 106.328 158.335 107.916 159.257 109.009C160.179 110.102 161.477 110.649 163.151 110.649Z" fill="currentColor"/>
</svg>
