<svg width="79" height="67" viewBox="0 0 79 67" fill="none" xmlns="http://www.w3.org/2000/svg">
<path d="M31.607 41.9778C34.4645 39.288 33.3292 34.7213 30.9233 31.6575H4.47754C4.47925 38.4655 6.45817 45.1265 10.1739 50.8312C13.8896 56.5359 19.1821 61.0386 25.4084 63.7923C23.2669 51.524 29.2269 44.216 31.607 41.9778Z" fill="#FE7E00"/>
<path d="M58.35 31.6318C55.9376 35.3536 51.6483 40.2751 44.8046 42.81C34.6585 46.5834 24.2737 48.9248 28.1631 64.8632C33.4543 66.6782 39.1022 67.204 44.6374 66.3971C50.1726 65.5901 55.4353 63.4737 59.988 60.2236C64.5407 56.9736 68.252 52.6838 70.8133 47.7109C73.3745 42.738 74.7119 37.2256 74.7141 31.6318H58.35Z" fill="#FE7E00"/>
<path d="M58.9495 0.94165C27.1694 12.3843 35 34.8568 35 34.8568C40.5213 32.3992 50.3321 17.9121 50.3321 17.9121C49.7451 23.8721 43.6819 32.3283 40.5084 36.3919C40.4375 36.4758 36.4964 40.8554 34.155 42.139C28.9561 45.0029 29.1045 47.8603 28.8594 49.1052V49.202C29.098 48.5569 30.7944 45.119 38.4831 42.526C48.1583 39.3009 55.5374 34.2569 58.9173 26.7295C65.1417 15.4868 58.9495 0.94165 58.9495 0.94165Z" fill="#FE7E00"/>
<path d="M32.7296 34.876H3.70373C2.84239 34.876 2.01634 34.5338 1.40728 33.9247C0.798228 33.3157 0.456055 32.4896 0.456055 31.6283C0.456055 30.767 0.798228 29.9409 1.40728 29.3318C2.01634 28.7228 2.84239 28.3806 3.70373 28.3806H26.1246C27.8597 29.0708 29.5883 30.0061 30.6075 31.1993C31.527 32.2895 32.2455 33.5344 32.7296 34.876ZM75.5266 28.3806H60.188C59.0451 30.7146 57.615 32.8966 55.9309 34.876H75.5266C76.3879 34.876 77.214 34.5338 77.823 33.9247C78.4321 33.3157 78.7742 32.4896 78.7742 31.6283C78.7742 30.767 78.4321 29.9409 77.823 29.3318C77.214 28.7228 76.3879 28.3806 75.5266 28.3806Z" fill="#FE7E00"/>
</svg>
