<svg width="18" height="21" viewBox="0 0 18 21" fill="none"
    xmlns="http://www.w3.org/2000/svg">
    <path d="M6.59892 17.7943C7.09883 17.6886 10.145 17.6886 10.6449 17.7943C11.0723 17.893 11.5344 18.1237 11.5344 18.6272C11.5096 19.1066 11.2283 19.5317 10.8397 19.8016C10.3358 20.1944 9.74449 20.4432 9.12631 20.5328C8.78442 20.5771 8.4485 20.5781 8.11854 20.5328C7.49936 20.4432 6.90801 20.1944 6.40512 19.8006C6.01553 19.5317 5.73426 19.1066 5.70942 18.6272C5.70942 18.1237 6.17156 17.893 6.59892 17.7943ZM8.68096 0.566406C10.7611 0.566406 12.886 1.55343 14.1482 3.19107C14.9671 4.24557 15.3428 5.29906 15.3428 6.93671V7.36274C15.3428 8.61867 15.6748 9.35893 16.4053 10.212C16.9588 10.8405 17.1357 11.6472 17.1357 12.5224C17.1357 13.3966 16.8485 14.2265 16.2731 14.9003C15.5197 15.7081 14.4573 16.2237 13.373 16.3134C11.8017 16.4473 10.2294 16.5601 8.63624 16.5601C7.04209 16.5601 5.47079 16.4927 3.8995 16.3134C2.8142 16.2237 1.75176 15.7081 0.999408 14.9003C0.423962 14.2265 0.135742 13.3966 0.135742 12.5224C0.135742 11.6472 0.313643 10.8405 0.86623 10.212C1.61958 9.35893 1.92966 8.61867 1.92966 7.36274V6.93671C1.92966 5.25475 2.34907 4.15492 3.21274 3.07827C4.49681 1.5081 6.55509 0.566406 8.59152 0.566406H8.68096Z" fill="currentColor"/>
</svg>
