<svg width="24" height="25" viewBox="0 0 24 25" fill="none" xmlns="http://www.w3.org/2000/svg">
<path d="M22.0001 17.2642V20.2642C22.0012 20.5427 21.9441 20.8184 21.8326 21.0736C21.721 21.3288 21.5574 21.5578 21.3521 21.7461C21.1469 21.9344 20.9046 22.0777 20.6408 22.167C20.377 22.2562 20.0974 22.2893 19.8201 22.2642C16.7429 21.9299 13.7871 20.8784 11.1901 19.1942C8.77388 17.6589 6.72539 15.6104 5.19006 13.1942C3.50003 10.5854 2.4483 7.61524 2.12006 4.52424C2.09507 4.24771 2.12793 3.969 2.21656 3.70587C2.30518 3.44273 2.44763 3.20093 2.63482 2.99586C2.82202 2.7908 3.04986 2.62695 3.30385 2.51477C3.55783 2.40258 3.8324 2.34451 4.11006 2.34424H7.11006C7.59536 2.33947 8.06585 2.51132 8.43382 2.82778C8.80179 3.14423 9.04213 3.58369 9.11005 4.06424C9.23668 5.02431 9.47151 5.96697 9.81006 6.87424C9.9446 7.23217 9.97372 7.62116 9.89396 7.99512C9.81421 8.36909 9.62892 8.71235 9.36005 8.98424L8.09006 10.2542C9.51361 12.7578 11.5865 14.8307 14.0901 16.2542L15.3601 14.9842C15.6319 14.7154 15.9752 14.5301 16.3492 14.4503C16.7231 14.3706 17.1121 14.3997 17.4701 14.5342C18.3773 14.8728 19.32 15.1076 20.2801 15.2342C20.7658 15.3028 21.2095 15.5474 21.5266 15.9217C21.8437 16.296 22.0122 16.7738 22.0001 17.2642Z" stroke="#6E7191" stroke-width="2" stroke-linecap="round" stroke-linejoin="round"/>
</svg>
