<svg width="21" height="22" viewBox="0 0 21 22" fill="none" xmlns="http://www.w3.org/2000/svg">
<path fill-rule="evenodd" clip-rule="evenodd" d="M10.2029 0.566467C15.5729 0.566467 19.9409 4.93447 19.9409 10.3045C19.9409 12.838 18.9686 15.1487 17.3775 16.883L20.5083 20.0072C20.8013 20.3002 20.8023 20.7742 20.5093 21.0672C20.3633 21.2152 20.1703 21.2882 19.9783 21.2882C19.7873 21.2882 19.5953 21.2152 19.4483 21.0692L16.2797 17.9095C14.6129 19.2443 12.4995 20.0435 10.2029 20.0435C4.83287 20.0435 0.463867 15.6745 0.463867 10.3045C0.463867 4.93447 4.83287 0.566467 10.2029 0.566467ZM10.2029 2.06647C5.65987 2.06647 1.96387 5.76147 1.96387 10.3045C1.96387 14.8475 5.65987 18.5435 10.2029 18.5435C14.7449 18.5435 18.4409 14.8475 18.4409 10.3045C18.4409 5.76147 14.7449 2.06647 10.2029 2.06647Z" fill="#4B5768"/>
</svg>
