<svg width="83" height="83" viewBox="0 0 83 83" fill="none" xmlns="http://www.w3.org/2000/svg">
<g opacity="0.2">
<path d="M41.2422 41.7917C39.0849 41.7917 36.9276 41.409 35.2459 40.6434L11.5428 29.8345C10.4586 29.3412 7.92969 27.8982 7.92969 25.1739C7.92969 22.4497 10.4586 21.0099 11.546 20.5102L35.4541 9.60835C38.7486 8.10288 43.7198 8.10288 47.0158 9.60835L70.9384 20.5102C72.0258 21.0051 74.5547 22.4481 74.5547 25.1739C74.5547 27.8998 72.0258 29.338 70.9384 29.8361L47.2352 40.6434C45.5568 41.409 43.3995 41.7917 41.2422 41.7917Z" fill="white"/>
<path d="M70.9287 37.1168L68.512 36.0261L62.3027 38.8673L47.248 45.754C45.5664 46.5228 43.4043 46.9055 41.2518 46.9055C39.0993 46.9055 36.9388 46.5228 35.2587 45.754L20.1929 38.8673L13.982 36.0261L11.5444 37.1216C10.4586 37.6165 7.92969 39.0691 7.92969 41.7917C7.92969 44.5144 10.4586 45.9686 11.5428 46.4635L35.2459 57.2949C36.918 58.0636 39.0785 58.448 41.2422 58.448C43.4059 58.448 45.5568 58.0636 47.2384 57.2965L70.9207 46.4683C72.0114 45.9734 74.5547 44.5288 74.5547 41.7917C74.5547 39.0547 72.029 37.6165 70.9287 37.1168Z" fill="white"/>
<path d="M70.9287 53.7714L68.512 52.6824L62.3027 55.5219L47.248 62.4007C45.5664 63.1662 43.4043 63.5506 41.2518 63.5506C39.0993 63.5506 36.9388 63.1678 35.2587 62.4007L20.1929 55.5139L13.982 52.6824L11.5444 53.7778C10.4586 54.2727 7.92969 55.7253 7.92969 58.448C7.92969 61.1707 10.4586 62.6233 11.5428 63.1166L35.2459 73.9415C36.918 74.7071 39.0865 75.1042 41.2422 75.1042C43.3979 75.1042 45.5472 74.7071 47.2288 73.9399L70.9191 63.1182C72.0114 62.6249 74.5547 61.1803 74.5547 58.448C74.5547 55.7157 72.029 54.2727 70.9287 53.7714Z" fill="white"/>
</g>
</svg>
