<?xml version="1.0" encoding="UTF-8" standalone="no"?>
<!DOCTYPE svg PUBLIC "-//W3C//DTD SVG 1.1//EN" "http://www.w3.org/Graphics/SVG/1.1/DTD/svg11.dtd">
<!-- Created with Vectornator (http://vectornator.io/) -->
<svg height="90.40624637974977pt" stroke-miterlimit="10" style="fill-rule:nonzero;clip-rule:evenodd;stroke-linecap:round;stroke-linejoin:round;" version="1.1" viewBox="0 0 100 90.4062" width="100.0pt" xml:space="preserve" xmlns="http://www.w3.org/2000/svg" xmlns:xlink="http://www.w3.org/1999/xlink">
<defs/>
<g id="Untitled">
<path d="M33.7776 9.00383C33.2546 9.05293 32.8235 9.57395 32.8725 10.0975C32.9215 10.6211 33.4419 11.0528 33.9648 11.0037L41.3927 11.0037L11.338 37.221C10.9375 37.5645 10.8854 38.242 11.2286 38.6429C11.5718 39.0438 12.2484 39.0959 12.6488 38.7522L42.9531 12.3161L42.9531 20.0032C42.9456 20.5315 43.4242 21.0174 43.9518 21.0174C44.4795 21.0174 44.958 20.5315 44.9505 20.0032L44.9505 10.0038C44.9505 9.48023 44.4747 9.00388 43.9518 9.00383C40.5679 9.00382 37.1465 9.00383 33.7776 9.00383ZM79.7803 22.9718C79.2897 23.0334 78.8872 23.5083 78.9064 24.003L78.9064 75.0001C76.3347 75.0001 72.8351 75.0001 68.9194 75.0001L68.9194 51.0015C68.942 50.4232 68.3692 49.8975 67.7958 49.9702C67.3052 50.0322 66.9027 50.5068 66.922 51.0015L66.922 75.0001C62.8036 75.0001 61.7357 75.0001 56.935 75.0001L56.935 43.0019C56.9575 42.4237 56.3848 41.898 55.8114 41.9707C55.3208 42.0323 54.9183 42.5072 54.9376 43.0019L54.9376 75.0001C49.9604 75.0001 49.4621 75.0001 44.9538 75.0001C44.9416 60.5532 44.9505 44.8603 44.9505 30.0026C44.9731 29.4244 44.4003 28.8987 43.827 28.9715C43.3364 29.0331 42.9339 29.508 42.9531 30.0026C43.0264 44.8908 42.8591 60.3129 42.9379 75.0001C38.3605 75.0001 37.2364 75.0001 32.9661 75.0001L32.9661 43.0019C32.9887 42.4237 32.4159 41.898 31.8425 41.9707C31.3519 42.0323 30.9494 42.5072 30.9687 43.0019L30.9687 75.0001C26.9746 75.0001 23.6728 75.0001 20.9817 75.0001L20.9817 49.0016C21.0042 48.4233 20.4315 47.8976 19.8581 47.9703C19.3675 48.0323 18.965 48.5069 18.9843 49.0016L18.9843 75.0001C15.2672 75.0001 11.5139 75.0001 7.81128 75.0001C7.28836 75.0491 6.85718 75.5702 6.9062 76.0938C6.95523 76.6173 7.47562 77.0491 7.99853 77C9.45761 77.0001 91.8895 77 91.8895 77C92.4171 77.01 92.9024 76.5283 92.9024 76.0001C92.9024 75.4717 92.4171 74.9926 91.8895 75.0001C91.8895 75.0001 83.3641 75.0001 80.9038 75.0001L80.9038 24.003C80.9263 23.4248 80.3536 22.8991 79.7803 22.9718Z" fill="#000000" fill-rule="nonzero" opacity="1" stroke="none"/>
</g>
</svg>
