<svg width="21" height="21" viewBox="0 0 21 21" fill="none" xmlns="http://www.w3.org/2000/svg">
<path d="M10.7988 20.9144C5.27598 20.9144 0.798828 16.4372 0.798828 10.9144C0.798828 5.39155 5.27598 0.914398 10.7988 0.914398C16.3217 0.914398 20.7988 5.39155 20.7988 10.9144C20.7928 16.4347 16.3192 20.9083 10.7988 20.9144ZM10.7988 2.9144C6.38055 2.9144 2.79883 6.49612 2.79883 10.9144C2.79883 15.3327 6.38055 18.9144 10.7988 18.9144C15.2171 18.9144 18.7988 15.3327 18.7988 10.9144C18.7939 6.49818 15.215 2.91936 10.7988 2.9144ZM15.7988 11.9144H9.79883V5.9144H11.7988V9.9144H15.7988V11.9144Z" fill="#6E7191"/>
</svg>
