<svg width="12" height="11" viewBox="0 0 12 11" fill="none" xmlns="http://www.w3.org/2000/svg">
<path d="M7.131 0.603591C7.189 0.660093 7.437 0.87344 7.641 1.07217C8.924 2.2373 11.024 5.27675 11.665 6.86759C11.768 7.10919 11.986 7.72001 12 8.04636C12 8.35907 11.928 8.65717 11.782 8.94163C11.578 9.29624 11.257 9.5807 10.878 9.73657C10.615 9.83691 9.828 9.99278 9.814 9.99278C8.953 10.1486 7.554 10.2344 6.008 10.2344C4.535 10.2344 3.193 10.1486 2.319 10.021C2.305 10.0064 1.327 9.85055 0.992 9.68006C0.38 9.36735 0 8.75654 0 8.10286V8.04636C0.015 7.62064 0.395 6.72536 0.409 6.72536C1.051 5.22025 3.048 2.25094 4.375 1.05756C4.375 1.05756 4.716 0.721467 4.929 0.575339C5.235 0.34738 5.614 0.234375 5.993 0.234375C6.416 0.234375 6.81 0.361993 7.131 0.603591Z" fill="#03CCAA"/>
</svg>
