<svg width="16" height="10" viewBox="0 0 16 10" fill="none" xmlns="http://www.w3.org/2000/svg">
<path d="M14.2002 8.85814C14.0602 8.85803 13.9218 8.82854 13.7939 8.77157C13.7642 8.75837 13.7358 8.74225 13.7093 8.72345L11.1246 6.90407C10.9935 6.8118 10.8865 6.68937 10.8127 6.54709C10.7388 6.40482 10.7002 6.24687 10.7002 6.08657V3.60532C10.7002 3.44502 10.7388 3.28708 10.8127 3.1448C10.8865 3.00253 10.9935 2.8801 11.1246 2.78782L13.7093 0.968447C13.7358 0.949648 13.7642 0.933528 13.7939 0.920322C13.9462 0.852633 14.1129 0.824059 14.279 0.837198C14.4452 0.850337 14.6053 0.904771 14.7451 0.995555C14.8848 1.08634 14.9996 1.2106 15.0791 1.35703C15.1586 1.50347 15.2002 1.66745 15.2002 1.83407V7.85782C15.2002 8.12304 15.0948 8.37739 14.9073 8.56493C14.7198 8.75247 14.4654 8.85782 14.2002 8.85782V8.85814ZM8.0752 9.34595H2.3252C1.76179 9.34537 1.22162 9.1213 0.823233 8.72291C0.424844 8.32452 0.200774 7.78435 0.200195 7.22095V2.47095C0.200774 1.90754 0.424844 1.36737 0.823233 0.968985C1.22162 0.570596 1.76179 0.346526 2.3252 0.345947H8.0902C8.6496 0.346609 9.1859 0.569124 9.58146 0.964683C9.97702 1.36024 10.1995 1.89654 10.2002 2.45595V7.22095C10.1996 7.78435 9.97555 8.32452 9.57716 8.72291C9.17877 9.1213 8.6386 9.34537 8.0752 9.34595Z" fill="white"/>
</svg>
