<svg width="20" height="17" viewBox="0 0 20 17" fill="none" xmlns="http://www.w3.org/2000/svg">
<path fill-rule="evenodd" clip-rule="evenodd" d="M10.0029 0.500504C14.1389 0.503504 17.8529 3.4025 19.9389 8.2565C20.0209 8.4455 20.0209 8.6595 19.9389 8.8485C17.8539 13.7035 14.1389 16.6025 10.0029 16.6055H9.99687C5.86087 16.6025 2.14687 13.7035 0.0608721 8.8485C-0.0201279 8.6595 -0.0201279 8.4455 0.0608721 8.2565C2.14687 3.4025 5.86187 0.503504 9.99687 0.500504H10.0029ZM9.99987 2.0005C6.56387 2.0015 3.42987 4.4445 1.56987 8.5525C3.42987 12.6615 6.56287 15.1045 9.99987 15.1055C13.4369 15.1045 16.5699 12.6615 18.4299 8.5525C16.5699 4.4445 13.4369 2.0015 9.99987 2.0005ZM9.99957 4.6413C12.1566 4.6413 13.9116 6.3963 13.9116 8.5533C13.9116 10.7093 12.1566 12.4633 9.99957 12.4633C7.84257 12.4633 6.08857 10.7093 6.08857 8.5533C6.08857 6.3963 7.84257 4.6413 9.99957 4.6413ZM9.99957 6.1413C8.66957 6.1413 7.58857 7.2233 7.58857 8.5533C7.58857 9.8823 8.66957 10.9633 9.99957 10.9633C11.3296 10.9633 12.4116 9.8823 12.4116 8.5533C12.4116 7.2233 11.3296 6.1413 9.99957 6.1413Z" fill="#1B2CC1"/>
</svg>
