<?xml version="1.0" standalone="no"?>
<!DOCTYPE svg PUBLIC "-//W3C//DTD SVG 20010904//EN"
 "http://www.w3.org/TR/2001/REC-SVG-20010904/DTD/svg10.dtd">
<svg version="1.0" xmlns="http://www.w3.org/2000/svg"
 width="632.000000pt" height="632.000000pt" viewBox="0 0 632.000000 632.000000"
 preserveAspectRatio="xMidYMid meet">
<metadata>
Created by potrace 1.14, written by Peter Selinger 2001-2017
</metadata>
<g transform="translate(0.000000,632.000000) scale(0.100000,-0.100000)"
fill="#000000" stroke="none">
<path d="M4680 5753 c-8 -3 -26 -10 -40 -16 -14 -6 -27 -11 -30 -12 -14 -5
-47 -18 -65 -25 -11 -5 -49 -21 -85 -36 -36 -14 -85 -36 -110 -48 -25 -13 -49
-24 -55 -26 -43 -12 -447 -229 -465 -249 -3 -3 -39 -28 -80 -56 -41 -27 -77
-52 -80 -55 -3 -3 -21 -17 -40 -30 -19 -13 -37 -27 -40 -30 -3 -3 -18 -16 -35
-28 -135 -103 -306 -277 -419 -427 -37 -49 -74 -98 -82 -108 -8 -9 -14 -19
-14 -22 0 -3 -17 -33 -38 -67 -76 -125 -190 -391 -205 -480 -2 -13 -6 -30 -10
-38 -6 -17 -17 -65 -22 -95 -2 -11 -9 -58 -16 -105 -14 -92 -18 -366 -6 -470
4 -36 17 -111 29 -167 17 -78 26 -103 38 -103 22 0 141 81 220 149 81 70 236
225 315 316 33 37 65 73 70 79 6 6 40 47 75 91 36 44 67 82 70 85 14 13 143
180 210 270 22 30 47 64 56 75 9 11 54 74 101 140 47 66 88 124 93 128 13 15
-19 -140 -49 -232 -36 -109 -89 -238 -114 -273 -10 -16 -16 -28 -13 -28 5 0
-5 -20 -77 -150 -92 -167 -337 -542 -414 -635 -5 -5 -31 -39 -58 -75 -27 -36
-61 -78 -75 -93 -44 -49 -235 -240 -286 -286 -54 -49 -189 -151 -199 -151 -4
0 -44 -24 -88 -53 -160 -104 -258 -216 -303 -346 -22 -65 -38 -141 -29 -141 2
0 20 25 40 55 20 30 67 82 103 115 65 59 208 160 254 180 13 6 30 14 38 20 33
21 190 89 265 114 44 15 89 31 100 36 11 4 40 15 65 24 25 8 59 21 75 27 17 7
35 13 41 14 6 2 27 10 45 18 19 9 63 28 99 43 113 46 361 173 422 215 14 11
29 19 33 19 4 0 17 8 30 18 12 9 33 24 45 32 38 26 184 133 197 144 138 124
212 196 269 265 38 46 74 89 79 95 10 11 80 115 100 148 46 78 165 323 196
407 61 159 101 340 116 521 8 106 7 372 -2 434 -3 23 -8 66 -11 96 -2 30 -9
78 -14 105 -6 28 -12 66 -15 85 -3 19 -6 42 -8 50 -6 27 -29 135 -32 150 -2 8
-4 15 -5 15 -1 0 -3 7 -5 15 -13 63 -78 274 -103 333 -16 37 -23 41 -52 30z"/>
<path d="M233 3560 c-13 -5 -23 -7 -23 -5 0 11 -87 -50 -112 -79 -29 -32 -65
-126 -62 -162 6 -85 29 -140 79 -188 49 -48 100 -69 183 -74 39 -3 72 -7 73
-11 0 -3 2 -19 4 -36 23 -252 109 -574 219 -825 47 -107 156 -314 167 -318 5
-2 9 -7 9 -12 0 -20 183 -278 251 -355 136 -152 198 -216 299 -304 41 -35 77
-68 78 -73 2 -4 8 -8 14 -8 6 0 31 -17 57 -38 48 -41 226 -162 236 -162 4 0
21 -10 38 -23 32 -23 269 -147 281 -147 4 0 4 19 1 42 -33 233 -37 485 -10
643 22 130 29 167 42 215 8 30 16 62 18 71 4 17 20 65 54 159 25 71 95 210
137 278 19 29 34 57 34 62 0 6 5 10 10 10 6 0 10 7 10 15 0 8 3 15 8 15 4 0
18 17 32 37 35 53 47 67 119 142 91 94 125 139 149 196 21 50 36 132 36 190
-1 81 -41 253 -65 280 -5 5 -9 14 -9 21 0 19 -75 144 -125 207 -58 73 -143
136 -270 198 l-100 49 -920 -1 c-524 0 -930 -4 -942 -9z"/>
<path d="M4804 3545 c-3 -14 -10 -25 -15 -25 -5 0 -9 -5 -9 -11 0 -6 -16 -38
-37 -72 -20 -34 -41 -71 -47 -82 -57 -103 -211 -301 -323 -414 -40 -41 -73
-78 -73 -83 0 -4 -3 -8 -7 -8 -5 0 -28 -18 -53 -40 -155 -139 -389 -286 -570
-360 -30 -12 -64 -26 -75 -30 -11 -5 -65 -25 -120 -45 -55 -20 -107 -39 -115
-42 -19 -8 -20 -8 -55 -18 -16 -4 -34 -11 -40 -15 -5 -4 -39 -17 -75 -29 -245
-87 -521 -229 -647 -334 -30 -24 -126 -121 -159 -158 -74 -86 -138 -230 -179
-404 -7 -28 -19 -191 -19 -240 1 -65 13 -221 18 -236 3 -8 8 -34 11 -59 4 -25
8 -55 10 -68 2 -12 9 -45 16 -73 l13 -50 70 -20 c39 -11 82 -25 96 -30 14 -4
36 -11 50 -14 14 -2 43 -9 65 -14 72 -16 149 -32 185 -37 19 -2 51 -7 70 -10
67 -12 116 -14 345 -18 127 -2 257 0 290 4 33 5 80 10 105 13 65 8 220 35 258
46 18 5 36 10 40 11 15 2 90 22 157 42 39 12 75 23 80 24 18 3 189 71 250 99
33 16 62 29 65 30 8 2 109 54 170 88 96 52 343 223 396 272 6 5 33 28 59 50
219 181 460 478 617 760 53 94 128 248 132 270 1 6 11 30 22 55 31 68 117 338
128 400 2 14 7 36 10 50 18 76 46 253 46 293 l0 37 58 1 c74 1 95 5 140 28 53
27 103 81 124 137 51 128 -8 271 -136 330 l-51 23 -642 1 -643 0 -6 -25z"/>
</g>
</svg>
