<?xml version="1.0" standalone="no"?>
<!DOCTYPE svg PUBLIC "-//W3C//DTD SVG 20010904//EN"
 "http://www.w3.org/TR/2001/REC-SVG-20010904/DTD/svg10.dtd">
<svg version="1.0" xmlns="http://www.w3.org/2000/svg"
 width="1331.000000pt" height="1331.000000pt" viewBox="0 0 1331.000000 1331.000000"
 preserveAspectRatio="xMidYMid meet">
<metadata>
Created by potrace 1.14, written by Peter Selinger 2001-2017
</metadata>
<g transform="translate(0.000000,1331.000000) scale(0.100000,-0.100000)"
fill="#000000" stroke="none">
<path d="M6295 13014 c-895 -58 -1714 -275 -2485 -660 -1913 -956 -3217 -2795
-3479 -4909 -36 -283 -45 -453 -45 -790 0 -337 9 -507 45 -790 266 -2147 1613
-4015 3570 -4954 673 -323 1378 -517 2169 -598 249 -25 910 -25 1160 0 838 85
1569 294 2280 653 1395 703 2477 1883 3058 3336 499 1246 586 2644 246 3956
-457 1770 -1678 3275 -3319 4094 -705 352 -1437 561 -2255 644 -148 15 -799
27 -945 18z m680 -2378 c404 -109 659 -512 581 -918 -59 -305 -282 -543 -586
-625 -100 -27 -301 -25 -404 5 -272 78 -481 287 -558 558 -32 113 -32 306 0
417 85 296 312 508 612 572 82 18 272 13 355 -9z m-1117 -1852 c192 -28 365
-96 542 -212 59 -38 130 -101 230 -203 l144 -147 151 152 c201 205 328 288
548 361 516 170 1085 1 1412 -420 188 -243 275 -496 275 -801 0 -249 -70 -485
-206 -696 -55 -86 -609 -749 -673 -806 -69 -62 -193 -81 -276 -43 -51 24 -109
84 -131 136 -21 50 -21 139 -1 187 13 32 127 171 555 683 143 171 203 308 218
500 8 98 -14 235 -52 331 -67 167 -208 319 -367 398 -132 65 -198 80 -347 80
-149 0 -215 -15 -347 -80 -119 -59 -197 -131 -390 -361 -80 -96 -158 -186
-172 -199 -97 -90 -273 -96 -374 -13 -21 17 -112 120 -203 228 -95 113 -195
221 -235 254 -411 337 -1027 168 -1209 -332 -41 -112 -56 -237 -41 -349 11
-92 43 -197 79 -269 34 -67 88 -132 697 -857 530 -632 806 -965 1299 -1573
l180 -220 439 265 c487 293 549 326 688 370 332 106 710 67 1014 -102 268
-150 489 -416 585 -704 53 -161 63 -230 63 -432 0 -155 -4 -200 -22 -274 -121
-499 -520 -877 -1026 -971 -127 -24 -415 -16 -530 14 -204 54 -384 146 -539
276 -26 22 -212 227 -413 455 -201 228 -373 423 -383 433 -15 17 -26 12 -223
-109 -114 -69 -207 -130 -207 -135 0 -6 106 -132 235 -282 129 -149 242 -287
252 -307 9 -19 19 -62 21 -96 5 -77 -24 -149 -80 -200 -55 -49 -96 -64 -175
-64 -117 1 -123 6 -436 367 l-277 321 -458 -270 c-251 -149 -489 -286 -529
-304 -161 -74 -349 -114 -532 -114 -623 0 -1146 433 -1268 1048 -13 65 -17
133 -16 267 2 199 19 291 82 449 116 289 359 544 645 676 472 218 1042 129
1412 -222 42 -40 229 -249 415 -465 186 -215 342 -394 347 -397 4 -2 102 54
217 124 116 71 215 131 220 133 12 5 36 -26 -329 424 -336 412 -575 700 -1241
1493 -251 300 -479 577 -505 615 -294 434 -293 1006 3 1445 57 84 192 229 271
290 277 213 630 305 974 254z"/>
<path d="M6729 10139 c-270 -40 -317 -416 -65 -530 63 -29 168 -26 234 7 97
48 153 139 153 249 0 176 -146 300 -322 274z"/>
<path d="M4455 4695 c-72 -16 -154 -47 -215 -82 -65 -38 -160 -113 -168 -132
-3 -9 -26 -41 -51 -71 -49 -61 -122 -208 -140 -283 -19 -79 -25 -226 -12 -307
26 -163 83 -279 200 -402 89 -94 190 -159 309 -201 74 -26 106 -31 210 -35
138 -5 211 6 317 47 97 37 897 512 890 528 -10 27 -606 712 -666 767 -77 69
-230 147 -336 170 -87 19 -254 20 -338 1z"/>
<path d="M8531 4680 c-112 -24 -185 -59 -450 -220 -509 -308 -581 -352 -581
-359 2 -17 653 -741 704 -782 131 -106 293 -161 476 -161 181 0 332 51 473
160 121 92 229 258 267 408 28 107 28 291 0 399 -65 254 -257 454 -515 535
-79 25 -295 36 -374 20z"/>
</g>
</svg>
